# xmcd
#
# Track frame offsets:
#	150
#	23209
#	44365
#	86986
#	114922
#	119725
#	141269
#	178200
#	203268
#	238530
#	277386
#
# Disc length: 4102 seconds
# Revision: 0
# Processed by: cddbd v1.5.2PL0 Copyright (c) Steve Scherf et al.
# Submitted via: dBpowerAMP V12.0
#
DISCID=a310040b
DTITLE=W.I.N.D. - Temporary Happiness
DYEAR=2013
DGENRE=Blues
TTITLE0=Temporary Happiness
TTITLE1=Sun Shines Through The Rain
TTITLE2=More Than Myself
TTITLE3=Dreaming My Life Away
TTITLE4=Social Paranoia
TTITLE5=Waiting For Next Friday
TTITLE6=Stand For Your Brother
TTITLE7=The First Day Of The Rest Of My Life
TTITLE8=The Lonely Place Inside
TTITLE9=Born To Ride
TTITLE10=In The Winter Time
EXTD=
EXTT0=
EXTT1=
EXTT2=
EXTT3=
EXTT4=
EXTT5=
EXTT6=
EXTT7=
EXTT8=
EXTT9=
EXTT10=
PLAYORDER=
